<svg xmlns="http://www.w3.org/2000/svg" width="1200" height="750" viewBox="0 0 1200 750" role="img" aria-labelledby="title desc">
  <title id="title">資料視覺化案例分析作品索引圖</title>
  <desc id="desc">以既有公開安全主視覺呈現資料敘事與動態簡報，不含第三方品牌介面。</desc>
  <rect width="1200" height="750" fill="#17140f"/>
  <path d="M0 590 C220 520 328 665 548 602 C780 540 882 382 1200 462 L1200 750 L0 750Z" fill="#cbe86b"/>
  <rect x="134" y="66" width="932" height="520" rx="46" fill="#efe9dc"/>
  <rect x="184" y="116" width="340" height="388" rx="34" fill="#6b4cff"/>
  <circle cx="354" cy="232" r="82" fill="#cbe86b"/>
  <path d="M250 418 C310 344 385 456 462 374" fill="none" stroke="#efe9dc" stroke-width="20" stroke-linecap="round"/>
  <rect x="580" y="132" width="386" height="72" rx="24" fill="#17140f"/>
  <rect x="580" y="246" width="280" height="34" rx="17" fill="#17140f" opacity="0.22"/>
  <rect x="580" y="306" width="340" height="34" rx="17" fill="#17140f" opacity="0.18"/>
  <rect x="580" y="366" width="240" height="34" rx="17" fill="#17140f" opacity="0.14"/>
  <text x="134" y="678" fill="#17140f" font-family="PingFang TC, Microsoft JhengHei, sans-serif" font-size="52" font-weight="900">案例分析・動態視覺</text>
</svg>
